<svg width="130" height="34" viewBox="0 0 130 34" fill="none" xmlns="http://www.w3.org/2000/svg">
<path d="M1.69544 34V0.16752H10.8648C13.3253 0.16752 15.1131 0.76984 16.228 1.97448C17.3558 3.16631 17.9196 5.13987 17.9196 7.89516V9.37533C17.9196 10.9644 17.6313 12.2524 17.0546 13.2392C16.4907 14.2259 15.6257 14.8731 14.4595 15.1807C15.9845 15.5651 17.0033 16.4686 17.516 17.8911C18.0414 19.3008 18.3041 21.0245 18.3041 23.0621C18.3041 25.2535 18.0991 27.1694 17.689 28.8098C17.2789 30.4501 16.5356 31.7253 15.4591 32.6352C14.3826 33.545 12.8512 34 10.8648 34H1.69544ZM8.30815 12.9124H9.6922C10.3202 12.9124 10.7238 12.6689 10.9033 12.1819C11.0827 11.6949 11.1724 11.1118 11.1724 10.4326V7.03013C11.1724 5.94082 10.6918 5.39617 9.73065 5.39617H8.30815V12.9124ZM8.98095 28.0409C10.7367 28.0409 11.6145 27.2079 11.6145 25.5419V21.3128C11.6145 20.3517 11.4671 19.5956 11.1724 19.0445C10.8904 18.4806 10.3522 18.1987 9.55764 18.1987H8.30815V28.0024C8.59008 28.028 8.81435 28.0409 8.98095 28.0409ZM20.534 34V0.16752H34.067V6.70334H27.4158V13.2968H33.7978V19.6596H27.4158V27.4065H34.5091V34H20.534ZM39.4109 34L35.7778 0.16752H42.3905L44.2551 21.5243L46.1582 0.16752H52.4634L54.2703 21.5243L56.0773 0.16752H62.7669L59.0761 34H50.964L49.2723 17.7181L47.6576 34H39.4109ZM64.7853 34V0.16752H78.3183V6.70334H71.6671V13.2968H78.0492V19.6596H71.6671V27.4065H78.7604V34H64.7853ZM80.0868 34L83.3547 0.16752H94.8308L98.0411 34H91.6398L91.1592 28.5407H87.084L86.6611 34H80.0868ZM87.5645 23.139H90.6402L89.1601 5.93442H88.8525L87.5645 23.139ZM100.117 34V0.16752H110.498C112.228 0.16752 113.535 0.564795 114.419 1.35935C115.303 2.14108 115.893 3.2432 116.188 4.6657C116.495 6.07539 116.649 7.73497 116.649 9.64445C116.649 11.4899 116.412 12.9636 115.938 14.0657C115.476 15.1679 114.598 15.9304 113.304 16.3533C114.368 16.5711 115.111 17.103 115.534 17.9488C115.97 18.7818 116.188 19.8647 116.188 21.1975V34H109.517V20.7553C109.517 19.7686 109.312 19.1598 108.902 18.9292C108.505 18.6857 107.858 18.5639 106.961 18.5639V34H100.117ZM106.999 12.7009H108.633C109.568 12.7009 110.036 11.6821 110.036 9.64445C110.036 8.32448 109.934 7.45944 109.729 7.04935C109.524 6.63926 109.139 6.43421 108.575 6.43421H106.999V12.7009Z" fill="black"/>
<path d="M124.816 0C125.773 0 126.627 0.211765 127.38 0.635294C128.149 1.05882 128.745 1.6549 129.169 2.42353C129.592 3.17647 129.804 4.03922 129.804 5.01176C129.804 5.96863 129.592 6.82353 129.169 7.57647C128.745 8.32941 128.149 8.92549 127.38 9.36471C126.627 9.78823 125.773 10 124.816 10C123.859 10 122.996 9.78823 122.227 9.36471C121.475 8.92549 120.878 8.32941 120.439 7.57647C120.016 6.82353 119.804 5.96863 119.804 5.01176C119.804 4.03922 120.016 3.17647 120.439 2.42353C120.878 1.6549 121.475 1.05882 122.227 0.635294C122.996 0.211765 123.859 0 124.816 0ZM124.816 8.8C125.945 8.8 126.847 8.4549 127.522 7.76471C128.212 7.05882 128.557 6.14118 128.557 5.01176C128.557 3.86667 128.212 2.94902 127.522 2.25882C126.847 1.55294 125.945 1.2 124.816 1.2C123.686 1.2 122.784 1.55294 122.11 2.25882C121.435 2.94902 121.098 3.86667 121.098 5.01176C121.098 6.15686 121.435 7.07451 122.11 7.76471C122.784 8.4549 123.686 8.8 124.816 8.8ZM127.027 4.07059C127.027 4.41569 126.941 4.71373 126.769 4.96471C126.612 5.21569 126.384 5.40392 126.086 5.52941L127.31 7.45882H125.475L124.463 5.69412H124.322V7.45882H122.745V2.42353H125.216C125.765 2.42353 126.204 2.58039 126.533 2.89412C126.863 3.19216 127.027 3.58431 127.027 4.07059ZM124.298 4.51765H125.051C125.161 4.51765 125.255 4.48627 125.333 4.42353C125.412 4.36078 125.451 4.26667 125.451 4.14118C125.451 3.90588 125.318 3.78823 125.051 3.78823H124.298V4.51765Z" fill="black"/>
</svg>
